<svg width="96" height="96" xmlns="http://www.w3.org/2000/svg" xmlns:xlink="http://www.w3.org/1999/xlink" xml:space="preserve" overflow="hidden"><defs><clipPath id="clip0"><rect x="610" y="385" width="96" height="96"/></clipPath></defs><g clip-path="url(#clip0)" transform="translate(-610 -385)"><path d="M641 416 630 416 630 409 641 409 641 416ZM656 409 656 416 645 416 645 409 656 409ZM671 409 671 416 660 416 660 409 671 409ZM686 409 686 416 675 416 675 409 686 409ZM686 427 675 427 675 420 686 420 686 427ZM686 435.5 675 436.5 675 431 686 431 686 435.5ZM641 431 641 439.5 630 440.5 630 431 641 431ZM641 427 630 427 630 420 641 420 641 427ZM656 427 645 427 645 420 656 420 656 427ZM660 427 660 420 671 420 671 427 660 427ZM656 438.2 645 439.2 645 431 656 431 656 438.2ZM660 431 671 431 671 436.8 660 437.8 660 431ZM692 441 692 403 630 403 630 402C630 397 626 393 621 393 619.3 393 618 394.3 618 396 618 397.7 619.3 399 621 399 622.7 399 624 400.3 624 402L624 452C624 457 628 461 633 461L636 461 680 461 689 461C690.7 461 692 459.7 692 458 692 456.3 690.7 455 689 455L633 455C631.3 455 630 453.7 630 452L630 446.5 692 441Z" stroke="#593196" fill="#593196"/><path d="M642 467C642 470.314 639.314 473 636 473 632.686 473 630 470.314 630 467 630 463.686 632.686 461 636 461 639.314 461 642 463.686 642 467Z" stroke="#593196" fill="#593196"/><path d="M686 467C686 470.314 683.314 473 680 473 676.686 473 674 470.314 674 467 674 463.686 676.686 461 680 461 683.314 461 686 463.686 686 467Z" stroke="#593196" fill="#593196"/></g></svg>