<svg width="96" height="96" xmlns="http://www.w3.org/2000/svg" xmlns:xlink="http://www.w3.org/1999/xlink" xml:space="preserve" overflow="hidden"><defs><clipPath id="clip0"><rect x="374" y="337" width="96" height="96"/></clipPath></defs><g clip-path="url(#clip0)" transform="translate(-374 -337)"><path d="M436.93 387C433.55 384.12 429.16 382.77 425 381.47L425 357.29C429.039 357.674 432.814 359.469 435.66 362.36L440.46 357.76C436.352 353.581 430.848 351.064 425 350.69L425 342 419 342 419 351.07C416.945 351.47 414.963 352.178 413.12 353.17 405.54 357.3 401.67 367 404.78 375.17 407.19 381.47 413 384.28 419 386.39L419 412.57C414.35 412 410.49 409.33 407.29 406L402.49 410.59C404.776 413.183 407.501 415.353 410.54 417 413.197 418.264 416.066 419.02 419 419.23L419 428 425 428 425 419C431.88 417.85 438.2 413.62 440.92 407 443.64 400.38 442.65 391.89 436.93 387ZM414 376.73C408.5 372.09 409.84 363.11 415.67 359.39 416.703 358.727 417.824 358.212 419 357.86L419 379.55C417.19 378.892 415.5 377.939 414 376.73ZM432.09 408.55C430.138 410.458 427.676 411.76 425 412.3L425 388.41C429 389.78 433.59 391.52 435.22 395.78 436.85 400.04 435.21 405.37 432.09 408.55Z" stroke="#593196" fill="#593196"/></g></svg>