<svg width="96" height="96" xmlns="http://www.w3.org/2000/svg" xmlns:xlink="http://www.w3.org/1999/xlink" xml:space="preserve" overflow="hidden"><defs><clipPath id="clip0"><rect x="998" y="517" width="96" height="96"/></clipPath></defs><g clip-path="url(#clip0)" transform="translate(-998 -517)"><path d="M1045.98 527C1025 527 1008 544.004 1008 564.979 1008 585.954 1025 602.958 1045.98 602.958 1066.95 602.958 1083.96 585.954 1083.96 564.979 1083.97 544.013 1066.98 527.009 1046.01 527 1046 527 1045.99 527 1045.98 527ZM1045.98 600.958C1026.11 600.958 1010 584.85 1010 564.979 1010 545.108 1026.11 529 1045.98 529 1065.85 529 1081.96 545.108 1081.96 564.979 1081.94 584.84 1065.84 600.935 1045.98 600.958Z" stroke="#FFFFFF" fill="#FFFFFF"/><path d="M1047 552 1039 552 1039 554 1045 554 1045 584 1038 584 1038 586 1054 586 1054 584 1047 584 1047 552Z" stroke="#FFFFFF" fill="#FFFFFF"/><path d="M1047.06 543.5C1047.06 544.743 1046.06 545.75 1044.81 545.75 1043.57 545.75 1042.56 544.743 1042.56 543.5 1042.56 542.257 1043.57 541.25 1044.81 541.25 1046.06 541.25 1047.06 542.257 1047.06 543.5Z" stroke="#FFFFFF" fill="#FFFFFF"/></g></svg>