<svg width="96" height="96" xmlns="http://www.w3.org/2000/svg" xmlns:xlink="http://www.w3.org/1999/xlink" xml:space="preserve" overflow="hidden"><defs><clipPath id="clip0"><rect x="1088" y="34" width="96" height="96"/></clipPath></defs><g clip-path="url(#clip0)" transform="translate(-1088 -34)"><path d="M1136 94C1129.4 94 1124 88.6 1124 82 1124 75.4 1129.4 70 1136 70 1142.6 70 1148 75.4 1148 82 1148 88.6 1142.6 94 1136 94ZM1163 74.5C1162.4 72.3 1161.5 70.2 1160.4 68.3L1162.9 60.8 1157.2 55.1 1149.7 57.6C1147.7 56.5 1145.6 55.6 1143.4 55L1140 48 1132 48 1128.5 55C1126.3 55.6 1124.2 56.5 1122.3 57.6L1114.8 55.1 1109.1 60.8 1111.6 68.3C1110.5 70.3 1109.6 72.4 1109 74.6L1102 78 1102 86 1109 89.5C1109.6 91.7 1110.5 93.8 1111.6 95.7L1109.1 103.2 1114.8 108.9 1122.3 106.4C1124.3 107.5 1126.4 108.4 1128.6 109L1132.1 116 1140.1 116 1143.6 109C1145.8 108.4 1147.9 107.5 1149.8 106.4L1157.3 108.9 1163 103.2 1160.5 95.7C1161.6 93.7 1162.5 91.6 1163.1 89.4L1170.1 85.9 1170.1 77.9 1163 74.5Z" stroke="#593196" fill="#FFFFFF"/></g></svg>