<svg width="96" height="96" xmlns="http://www.w3.org/2000/svg" xmlns:xlink="http://www.w3.org/1999/xlink" xml:space="preserve" overflow="hidden"><defs><clipPath id="clip0"><rect x="343" y="385" width="96" height="96"/></clipPath></defs><g clip-path="url(#clip0)" transform="translate(-343 -385)"><path d="M391 445C384.4 445 379 439.6 379 433 379 426.4 384.4 421 391 421 397.6 421 403 426.4 403 433 403 439.6 397.6 445 391 445ZM418 425.5C417.4 423.3 416.5 421.2 415.4 419.3L417.9 411.8 412.2 406.1 404.7 408.6C402.7 407.5 400.6 406.6 398.4 406L395 399 387 399 383.5 406C381.3 406.6 379.2 407.5 377.3 408.6L369.8 406.1 364.1 411.8 366.6 419.3C365.5 421.3 364.6 423.4 364 425.6L357 429 357 437 364 440.5C364.6 442.7 365.5 444.8 366.6 446.7L364.1 454.2 369.8 459.9 377.3 457.4C379.3 458.5 381.4 459.4 383.6 460L387.1 467 395.1 467 398.6 460C400.8 459.4 402.9 458.5 404.8 457.4L412.3 459.9 418 454.2 415.5 446.7C416.6 444.7 417.5 442.6 418.1 440.4L425.1 436.9 425.1 428.9 418 425.5Z" stroke="#593196" fill="#593196"/></g></svg>