<svg width="96" height="96" xmlns="http://www.w3.org/2000/svg" xmlns:xlink="http://www.w3.org/1999/xlink" xml:space="preserve" overflow="hidden"><defs><clipPath id="clip0"><rect x="892" y="446" width="96" height="96"/></clipPath></defs><g clip-path="url(#clip0)" transform="translate(-892 -446)"><path d="M946.6 475.4 945.4 455 947 455 947 454C947 452.2 945.8 450.7 944.2 450.2 944 450.1 943.8 450 943.5 450L943 450 937 450 936.5 450C936.2 450 936 450.1 935.8 450.2 934.2 450.7 933 452.2 933 454L933 455 934.6 455 933.4 475.4C929.6 477.4 927 481.4 927 486L927 534C927 536.2 932.8 538 940 538 947.2 538 953 536.2 953 534L953 486C953 481.4 950.4 477.4 946.6 475.4ZM949 532.7C947.6 533.3 944.4 534 940 534 935.6 534 932.4 533.3 931 532.7L931 516 933.9 516C935.4 519.1 937.6 521 940 521 942.4 521 944.7 519.1 946.1 516L949 516 949 532.7ZM949 498 946.1 498C944.6 494.9 942.4 493 940 493 937.6 493 935.3 494.9 933.9 498L931 498 931 486C931 483 932.6 480.3 935.3 478.9L937.3 477.8 937.4 475.5 938.2 462 941.8 462 942.6 475.6 942.7 477.9 944.7 479C947.4 480.3 949 483 949 486L949 498Z" stroke="#593196" fill="#593196"/></g></svg>